<?xml version="1.0" encoding="utf-8"?>
<!-- Generator: Adobe Illustrator 22.1.0, SVG Export Plug-In . SVG Version: 6.00 Build 0)  -->
<svg version="1.1" id="Layer_1" xmlns="http://www.w3.org/2000/svg" xmlns:xlink="http://www.w3.org/1999/xlink" x="0px" y="0px"
	 viewBox="0 0 500 500" style="enable-background:new 0 0 500 500;" xml:space="preserve">
<style type="text/css">
	.st0{fill:#FFFFFF;}
</style>
<path class="st0" d="M390.4,339.1c-0.3,0.9-0.7,1.7-1,2.6C389.7,340.9,390,340,390.4,339.1z"/>
<path class="st0" d="M282.9,137.4c0.6-0.1,1-0.2,1.2-0.2c1.2,0,3.1,0.1,5.8,0.2c1.4,0,2.4,0.1,2.9,0.1c0.8,0,2.4-0.1,4.8-0.2
	l8.8-0.5c2.3-0.2,5-0.3,8.1-0.3c5.4,0,9.8,0.8,13,2.3s5.7,4,7.5,7.3s2.6,6.6,2.6,9.8c0,5.4-1.9,10.1-5.7,14.1s-9,5.9-15.4,5.9
	c-1.8,0-3.3-0.2-4.5-0.5c-1.2-0.4-2.6-1.1-4.2-2.1c-0.7-0.5-1.1-0.9-1.2-1.4c0.1-0.2,0.3-0.4,0.6-0.5c0.5,0,1,0.1,1.5,0.3
	c1.2,0.4,2.7,0.6,4.5,0.6c2.7,0,5.3-0.7,7.8-2c2.4-1.4,4.3-3.3,5.5-5.8s1.9-5.1,1.9-7.9c0-2.7-0.7-5.3-2-7.9c-1.3-2.5-3-4.6-5.2-6.1
	c-1.2-0.9-3.1-1.6-5.6-2.2s-4.5-0.9-5.8-0.9c-4.3,0-6.8,0.3-7.6,0.9l-0.1,0.7l0.2,5.9l-0.1,1c-0.1,0.9-0.1,2.4-0.1,4.3
	c0,7.1,0.1,11.5,0.3,13.2v2.9l0.7,23.8c0,0.3,0,1-0.1,1.9s-0.1,1.8-0.1,2.4c0,1.7,0.1,2.9,0.4,3.8c0.8,0.2,3.3,0.8,7.3,1.7
	c1.9,0.5,2.9,0.7,3.1,0.8c0.3,0.1,0.5,0.3,0.7,0.7c-0.1,0.5-0.3,0.9-0.5,1c-0.2,0.2-0.7,0.2-1.3,0.2c-0.4,0-1.4-0.1-2.9-0.3
	c-3-0.3-5.3-0.5-7-0.5l-9.2,0.4l-5.5-0.2c-0.3,0-1.4,0-3,0.1l-0.1-1.4l6.8-1.3c1.1-0.3,1.8-0.6,2-0.9c0.3-0.5,0.5-1.4,0.5-2.9
	c0-0.3,0-1,0.1-2c0-0.7,0.1-1.7,0.1-3c0-4.1-0.2-12.8-0.5-26.2c-0.1-6.2-0.2-12.6-0.2-19v-0.9c0-2.5-0.4-4.1-1.1-4.7
	c-1.3-1.1-4.5-2.1-9.6-2.8c-0.2-0.4-0.3-0.7-0.3-0.9C282.6,138.1,282.7,137.8,282.9,137.4L282.9,137.4z"/>
<path class="st0" d="M315.9,189.8c0.6-0.1,1-0.2,1.2-0.2c1.2,0,3.1,0.1,5.8,0.2c1.4,0,2.4,0.1,2.9,0.1c0.8,0,2.4-0.1,4.8-0.2
	l8.8-0.5c2.3-0.2,5-0.3,8.1-0.3c5.4,0,9.8,0.8,13,2.3s5.7,4,7.5,7.3s2.6,6.6,2.6,9.8c0,5.4-1.9,10.1-5.7,14.1s-9,5.9-15.4,5.9
	c-1.8,0-3.3-0.2-4.5-0.5c-1.2-0.4-2.6-1.1-4.2-2.1c-0.7-0.5-1.1-0.9-1.2-1.4c0.1-0.2,0.3-0.4,0.6-0.5c0.5,0,1,0.1,1.5,0.3
	c1.2,0.4,2.7,0.6,4.5,0.6c2.7,0,5.3-0.7,7.8-2c2.4-1.4,4.3-3.3,5.5-5.8s1.9-5.1,1.9-7.9c0-2.7-0.7-5.3-2-7.9c-1.3-2.5-3-4.6-5.2-6.1
	c-1.2-0.9-3.1-1.6-5.6-2.2s-4.5-0.9-5.8-0.9c-4.3,0-6.8,0.3-7.6,0.9l-0.1,0.7l0.2,5.9l-0.1,1c-0.1,0.9-0.1,2.4-0.1,4.3
	c0,7.1,0.1,11.5,0.3,13.2v2.9l0.7,23.8c0,0.3,0,1-0.1,1.9s-0.1,1.8-0.1,2.4c0,1.7,0.1,2.9,0.4,3.8c0.8,0.2,3.3,0.8,7.3,1.7
	c1.9,0.5,2.9,0.7,3.1,0.8c0.3,0.1,0.5,0.3,0.7,0.7c-0.1,0.5-0.3,0.9-0.5,1c-0.2,0.2-0.7,0.2-1.3,0.2c-0.4,0-1.4-0.1-2.9-0.3
	c-3-0.3-5.3-0.5-7-0.5l-9.2,0.4l-5.5-0.2c-0.3,0-1.4,0-3,0.1l-0.1-1.4l6.8-1.3c1.1-0.3,1.8-0.6,2-0.9c0.3-0.5,0.5-1.4,0.5-2.9
	c0-0.3,0-1,0.1-2c0-0.7,0.1-1.7,0.1-3c0-4.1-0.2-12.8-0.5-26.2c-0.1-6.2-0.2-12.6-0.2-19V199c0-2.5-0.4-4.1-1.1-4.7
	c-1.3-1.1-4.5-2.1-9.6-2.8c-0.2-0.4-0.3-0.7-0.3-0.9C315.6,190.5,315.7,190.2,315.9,189.8L315.9,189.8z"/>
<polygon class="st0" points="283.6,411.6 278,400.2 265.4,398.4 274.5,389.6 272.4,377.1 283.6,383 294.8,377.1 292.6,389.6 
	301.7,398.4 289.2,400.2 "/>
<polygon class="st0" points="217,410.8 211.4,399.4 198.8,397.6 207.9,388.8 205.8,376.3 217,382.2 228.2,376.3 226,388.8 
	235.1,397.6 222.6,399.4 "/>
<polygon class="st0" points="316.9,366.4 311.3,355.1 298.7,353.3 307.8,344.4 305.7,331.9 316.9,337.8 328.1,331.9 325.9,344.4 
	335,353.3 322.5,355.1 "/>
<polygon class="st0" points="250.3,365.7 244.7,354.3 232.1,352.5 241.2,343.6 239.1,331.1 250.3,337 261.5,331.1 259.3,343.6 
	268.4,352.5 255.9,354.3 "/>
<polygon class="st0" points="183.7,365.7 178.1,354.3 165.5,352.5 174.6,343.6 172.5,331.1 183.7,337 194.9,331.1 192.7,343.6 
	201.8,352.5 189.3,354.3 "/>
<path class="st0" d="M254,255.6V73.7l-4.1-1.2l-2.9,0.9v182l-138.8,80.1c0.8,2.2,1.7,4.4,2.5,6.6l139.5-80.5l139,80.3
	c0.9-2.2,1.7-4.4,2.5-6.6L254,255.6L254,255.6z"/>
<path class="st0" d="M130.6,470c-2.4-0.8-4.5-3-2.5-6.4c6-10,15.9-26.3,28.1-46.6c-1.6-1.4-3.2-2.8-4.7-4.3l-28.9,48.8
	c0,0-2.3,5-7.7,3.1c-7-2.4-46.3-15.7-55.4-18.8c-9.9-3.4-15.9,13.4-6.4,16.6c4.8,1.6,64.5,21.8,71.6,24.2
	C137.2,491,142.8,474.1,130.6,470L130.6,470z"/>
<path class="st0" d="M351.3,95.1c18.8-31.3,37.6-62.6,38.2-63.6c3.2-5.9-7.4-11.8-10.2-6.2c-0.5,1-20,34.2-38.9,66.5
	C340.4,91.8,351.3,95.1,351.3,95.1z"/>
<path class="st0" d="M440.4,445.9c-9.1,3.1-48.3,16.4-55.4,18.8c-5.4,1.8-7.7-3.1-7.7-3.1l-28.9-48.7c-1.6,1.4-3.1,2.9-4.7,4.3
	c12.2,20.2,22.1,36.5,28,46.4c2,3.4-0.1,5.6-2.5,6.4c-12.2,4.1-6.6,21,5.8,16.8c7.1-2.4,66.8-22.6,71.6-24.2
	C456.3,459.4,450.3,442.6,440.4,445.9L440.4,445.9z"/>
<path class="st0" d="M148.7,95.1l11-3.3c-18.9-32.3-38.4-65.5-38.9-66.5c-2.8-5.6-13.4,0.3-10.2,6.2
	C111.1,32.5,129.9,63.8,148.7,95.1z"/>
<path class="st0" d="M323.3,37.5l-69.2-21.2V16c0-4.7-7-4.7-7,0v49.7l2.9-0.9l4.1,1.2v-9.6C254.1,56.4,323.3,37.5,323.3,37.5z"/>
<path class="st0" d="M250,64.9L89.4,112.8v152.8c0,37.2,8.4,71,25,100.4c13.3,23.5,31.7,44.3,54.9,61.7
	c39.4,29.6,78.2,39.1,79.8,39.5l0.8,0.2l0.8-0.2c1.6-0.4,40.4-9.8,79.8-39.3c23.2-17.4,41.7-38.1,54.9-61.7
	c16.6-29.4,25-63.3,25-100.6V112.8L250,64.9z M379.4,362.5c-12.7,22.7-30.5,42.7-52.9,59.4c-16.6,12.5-33.4,21.3-47,27.3
	c-15.5-13-44.7-12.9-60.9-0.9c-13.2-6-29.1-14.6-45-26.5c-22.4-16.8-40.2-36.8-53-59.5c-16-28.3-24.1-60.9-24.1-96.9v-121l26.1-7.8
	v-26.3l127.3-38l126.6,37.8v26.5l26.8,8v120.8C403.4,301.6,395.3,334.2,379.4,362.5z"/>
<path class="st0" d="M140.3,174.9c0.1,1.3,0.2,2.9,0.4,4.9v0.4c2,16.7,6.7,57.1,7.7,66.6c0.6,6,12.4,9.1,24.2,9.1s23.7-2.9,24.6-9.1
	s3.4-28.7,5.8-49.7v-0.5c0.2-2.1,0.4-4.5,0.5-6.5l0.1-0.7c0.2-2.5,0.5-5.1,0.8-7.5c0.2-1.5,0.3-3,0.5-4.5c0.4-3.9,0.7-7.1,1.1-10.5
	c0.1-1.3,0.3-2.5,0.4-3.8c0.1-1.5,0.3-3.4,0.5-5.1c-0.9-0.1-1.8-0.3-2.6-0.5c-1,1-2.4,1.5-3.9,1.5c-0.5,0-1.1-0.1-1.6-0.2
	c-1.4,2-3.8,2.9-6.1,3c0,1-0.2,2-0.7,2.9c-0.8,1.6-2.1,2.8-3.7,3.4c0.2,1.3,0.1,2.5-0.5,3.7c-0.2,0.3-0.4,0.7-0.6,1l-3,76.6
	c-0.6,0.1-1.3,0.3-1.9,0.4l2.9-75.3c-0.2,0.1-0.5,0.3-0.8,0.4c0.1,0.9,0,1.9-0.2,2.8c-0.6,1.8-2,3-3.8,3.5c-0.5,0.1-0.9,0.2-1.4,0.2
	c-2.3,0-4.2-1.4-5.4-3.8v73.1h-0.9h-1V177c-2-0.5-3.8-1.7-4.9-3.5c-0.7-1.2-1.1-2.5-1.2-3.8c-1.3-0.2-2.5-0.7-3.4-1.5
	c-1.1,0.6-2.4,0.9-3.9,0.9c-1.7,0-3.3-0.5-4.6-1.3c-1.5,0.2-2.9,0.3-4.2,0.5c-1.1,0.4-2.1,1-3.1,1.6c-1.6,1-3.4,2.1-6.1,2.4
	C140.2,173.1,140.2,173.9,140.3,174.9L140.3,174.9z M190.5,247.3l5.8-81.2c0.6,0,1.3-0.1,1.9-0.3l-5.7,80.3
	C191.9,246.5,191.2,246.9,190.5,247.3z M158.5,173.9c0.6,0,1.3-0.1,1.9-0.1l2.7,75.9c-0.7-0.1-1.3-0.3-1.9-0.4L158.5,173.9z
	 M147.6,176.5c0.6-0.2,1.2-0.4,1.9-0.6l5,71.1c-0.7-0.4-1.4-0.8-2-1.2L147.6,176.5z"/>
<path class="st0" d="M144.4,248.9c1.1,6.9,14.6,10.5,28.2,10.6c13.3,0.1,26.7-3.3,28.5-10.2l3.3,2.8c-1.1,8.1-16.5,12-31.8,11.9
	s-30.6-4.1-31.4-11.9L144.4,248.9L144.4,248.9z"/>
<path class="st0" d="M130.4,185.9c3-0.5,5.4-0.9,7.7-1.3c0.2,1.6,0.4,3.4,0.6,5.3c-1.2,0.2-2.4,0.3-3.9,0.6
	c-1.5,0.2-2.5,1.8-2.4,3.5c0.8,8.9,1.5,17.8,2.3,26.7c0.1,1.8,1,3.3,1.9,3.4c2.5,0.3,3.8,0.5,6.2,0.8c0.2,2,0.5,3.9,0.7,5.8
	c-3.5-0.6-5.5-0.9-9.2-1.6c-1.5-0.2-2.9-2.3-3.2-4.6l-4.8-33.9C125.9,188.5,127.8,186.4,130.4,185.9L130.4,185.9z"/>
<path class="st0" d="M137.2,158.3c0.6,0,1.3,0.1,2.1,0.3c-0.4-3.3,3-5.5,6-5.5c1.9,0,3.6,0.9,4.2,2.8c0.5-4.2,3.6-5.8,6.7-5.8
	c1.8,0,3.5,0.5,4.8,1.4c-1-5.1,2.5-9.2,6.6-9.2c0.8,0,1.6,0.1,2.4,0.5c-0.3-5.3,3-8.1,6.8-8.1c2.3,0,4.7,1,6.8,3.1
	c1.5-1.7,3.6-2.6,5.6-2.6c3.4,0,6.6,2.4,6.3,7c0.9-1.1,2.2-1.7,3.6-1.7c2.4,0,4.9,1.7,4.6,5.3c1.4-1.5,3.2-2.1,5.1-2.1
	c4.5,0,8.9,3.9,6.2,9.7c5.2,1.3,5.1,11.1-0.4,11.1h-0.2c1.9,1.6,0.7,5-1,5.7c3.5,0.9,3.5,6.4-0.2,7.9c3.5,3.8,1.1,9.1-2.9,10.1
	c2.9,2.8,1,9.1-4.5,9.3c0.2-2.4,0.4-5.3,0.6-7.4c0.3-4.1,0.9-8.2,1.2-12.2c0.5-5.5,1-9.8,1.6-14.7c0.2-3.1,0.6-5.9,1-7.6
	c-0.4,0-0.8,0.1-1.2,0.1c-1.8,0-3.6-0.4-4.8-1.1c-0.6,1.3-1.8,2-3.3,2c-0.9,0-1.9-0.3-2.8-0.8c-0.5,2.5-3,3.7-5.4,3.7
	c-1,0-2-0.2-2.8-0.6c2.2,2.7,0.3,7.6-4.1,7.6h-0.4c2.6,3.5-0.2,6.8-2.9,6.8c-0.4,0-0.7-0.1-1.1-0.2c1.5,1.8,1.5,5.5-1.6,6.3
	c-0.3,0.1-0.6,0.1-0.9,0.1c-2.5,0-3.7-2.6-4.2-4.2c-0.5,0.1-1,0.2-1.4,0.2c-4.1,0-7.1-4.2-5.5-7.8c-0.6,0.1-1.1,0.2-1.6,0.2
	c-1.9,0-3.4-0.9-4.2-2.5c-0.9,1.2-2.6,1.8-4.3,1.8c-1.5,0-3-0.5-4-1.4h-1.1c-7.4,0-8.5,4.7-14.2,4.7c-0.4,0-0.9,0-1.3-0.1
	c0.3,2.8,0.4,5.1,0.8,10h-0.4c-4.2,0-7.2-6.6-5-10.7C128.9,166.6,130.8,158.3,137.2,158.3L137.2,158.3z"/>
</svg>
